# xmcd
#
# Track frame offsets: 
#        150
#        19667
#        36672
#        54907
#        76050
#        92820
#        111300
#        129857
#        146310
#        159480
#        174962
#        190982
#        208665
#        229815
#
# Disc length: 3234 seconds
#
# Revision: 1
# Processed by: cddbd v1.4PL0 Copyright (c) Steve Scherf et al.
# Submitted via: ExactAudioCopy v0.90b4
#
DISCID=b10ca00e
DTITLE=Julian Austin - Back In Your Life
DYEAR=1900
DGENRE=Country
TTITLE0=Back In Your Life
TTITLE1=Take The Money and Run
TTITLE2=Real Love
TTITLE3=Forever Loving You
TTITLE4=Should Be Over You
TTITLE5=Baby Bye Bye
TTITLE6=Cause He Ain't Here
TTITLE7=She's Through
TTITLE8=Good At Bein' Bad
TTITLE9=Better Think Twice
TTITLE10=Doesn't Take A Fool
TTITLE11=Lying To Myself
TTITLE12=My Reason For Living Is You
TTITLE13=Holdin' On For 8
EXTD=
EXTT0=
EXTT1=
EXTT2=
EXTT3=
EXTT4=
EXTT5=
EXTT6=
EXTT7=
EXTT8=
EXTT9=
EXTT10=
EXTT11=
EXTT12=
EXTT13=
PLAYORDER=
